<?xml version="1.0" encoding="utf-8"?>
<!-- Generator: Adobe Illustrator 19.0.0, SVG Export Plug-In . SVG Version: 6.00 Build 0)  -->
<svg version="1.1" id="Layer_1" xmlns="http://www.w3.org/2000/svg" xmlns:xlink="http://www.w3.org/1999/xlink" x="0px" y="0px"
	 viewBox="0 0 600 600" style="enable-background:new 0 0 600 600;" xml:space="preserve">
<style type="text/css">
	.st0{fill:#FFFFFF;}
</style>
<g>
	<circle cx="300" cy="300" r="297.5"/>
	<g>
		<path class="st0" d="M216.4,446.3V248.9h-65.6v197.4H216.4z M183.6,221.9c22.9,0,37.1-15.2,37.1-34.1
			c-0.4-19.4-14.2-34.1-36.7-34.1c-22.4,0-37.1,14.7-37.1,34.1c0,18.9,14.2,34.1,36.3,34.1H183.6L183.6,221.9z"/>
		<path class="st0" d="M252.8,446.3h65.6V336.1c0-5.9,0.4-11.8,2.2-16c4.7-11.8,15.5-24,33.7-24c23.7,0,33.2,18.1,33.2,44.6v105.6
			h65.6V333.1c0-60.6-32.4-88.9-75.5-88.9c-35.4,0-50.9,19.8-59.6,33.3h0.4v-28.6h-65.6C253.6,267.4,252.8,446.3,252.8,446.3
			L252.8,446.3z"/>
	</g>
</g>
</svg>
